<svg width="20" height="20" viewBox="0 0 20 20" fill="none" xmlns="http://www.w3.org/2000/svg">
<path d="M9.97696 5.10184C7.32617 5.10184 5.18685 7.33745 5.18685 10.1075C5.18685 12.8776 7.32617 15.1132 9.97696 15.1132C12.6277 15.1132 14.7671 12.8776 14.7671 10.1075C14.7671 7.33745 12.6277 5.10184 9.97696 5.10184ZM9.97696 13.3609C8.2627 13.3609 6.86374 11.899 6.86374 10.1075C6.86374 8.31613 8.2627 6.85421 9.97696 6.85421C11.6912 6.85421 13.0902 8.31613 13.0902 10.1075C13.0902 11.899 11.6912 13.3609 9.97696 13.3609ZM14.9632 3.73022C14.3443 3.73022 13.8445 4.25251 13.8445 4.89927C13.8445 5.54604 14.3443 6.06833 14.9632 6.06833C15.5822 6.06833 16.082 5.54848 16.082 4.89927C16.0821 4.7457 16.0533 4.59359 15.9972 4.45167C15.941 4.30975 15.8586 4.18079 15.7547 4.0722C15.6508 3.9636 15.5274 3.8775 15.3916 3.81882C15.2558 3.76013 15.1102 3.73003 14.9632 3.73022ZM19.3143 10.1075C19.3143 8.76033 19.326 7.42531 19.2536 6.08053C19.1812 4.51854 18.8402 3.13227 17.7472 1.99006C16.6518 0.845414 15.3276 0.491525 13.8329 0.415866C12.5437 0.340207 11.2662 0.352411 9.97929 0.352411C8.6901 0.352411 7.41258 0.340207 6.12572 0.415866C4.63101 0.491525 3.30444 0.847855 2.21143 1.99006C1.11608 3.13471 0.777434 4.51854 0.705033 6.08053C0.632633 7.42775 0.64431 8.76277 0.64431 10.1075C0.64431 11.4523 0.632633 12.7898 0.705033 14.1346C0.777434 15.6965 1.11842 17.0828 2.21143 18.225C3.30678 19.3697 4.63101 19.7236 6.12572 19.7992C7.41492 19.8749 8.69243 19.8627 9.97929 19.8627C11.2685 19.8627 12.546 19.8749 13.8329 19.7992C15.3276 19.7236 16.6541 19.3672 17.7472 18.225C18.8425 17.0804 19.1812 15.6965 19.2536 14.1346C19.3283 12.7898 19.3143 11.4548 19.3143 10.1075ZM17.259 15.8625C17.0886 16.3067 16.883 16.6386 16.5537 16.9803C16.2244 17.3244 15.9091 17.5392 15.4841 17.7174C14.2556 18.2275 11.3386 18.1128 9.97696 18.1128C8.61536 18.1128 5.69599 18.2275 4.46752 17.7198C4.04246 17.5417 3.72483 17.3269 3.39786 16.9828C3.06856 16.6386 2.86303 16.3091 2.69254 15.865C2.20676 14.5787 2.31653 11.5304 2.31653 10.1075C2.31653 8.68467 2.20676 5.6339 2.69254 4.35014C2.86303 3.90594 3.06856 3.57402 3.39786 3.23233C3.72717 2.89065 4.04246 2.67343 4.46752 2.49527C5.69599 1.98762 8.61536 2.10233 9.97696 2.10233C11.3386 2.10233 14.2579 1.98762 15.4864 2.49527C15.9115 2.67343 16.2291 2.88821 16.5561 3.23233C16.8854 3.57646 17.0909 3.90594 17.2614 4.35014C17.7472 5.6339 17.6374 8.68467 17.6374 10.1075C17.6374 11.5304 17.7472 14.5787 17.259 15.8625Z" fill="white"/>
</svg>
