<svg width="18" height="22" viewBox="0 0 18 22" fill="none" xmlns="http://www.w3.org/2000/svg">
<path d="M0.994642 7.84209C0.994642 6.89691 1.15275 6.00397 1.46432 5.17056C1.76199 4.36108 2.20426 3.61814 2.76755 2.98133C3.32969 2.35289 3.97297 1.80946 4.6788 1.36675C5.40297 0.908924 6.18699 0.563526 7.00624 0.341388C7.83539 0.113866 8.68918 -0.000876391 9.54644 5.03971e-06C10.8706 5.03971e-06 12.1029 0.292793 13.2457 0.875938C14.3736 1.44845 15.3336 2.32705 16.0254 3.41991C16.7392 4.53153 17.0938 5.78894 17.0938 7.19091C17.0938 8.03162 17.0147 8.85409 16.8531 9.65835C16.6945 10.4622 16.4422 11.2427 16.1021 11.9824C15.7779 12.6985 15.354 13.3606 14.8442 13.9469C14.3319 14.5239 13.7114 14.9846 13.0213 15.3003C12.2722 15.6434 11.4618 15.8161 10.6439 15.8069C10.0754 15.8069 9.50807 15.6672 8.94772 15.3865C8.38737 15.1071 7.98512 14.7232 7.74331 14.2312C7.65844 14.5726 7.54218 15.0658 7.38756 15.7109C7.23876 16.3548 7.13878 16.7703 7.0946 16.9586C7.0481 17.1457 6.96207 17.4579 6.83651 17.8904C6.75136 18.2103 6.64213 18.5227 6.50983 18.8247L6.10991 19.6435C5.93696 19.9949 5.74361 20.3349 5.53095 20.6616C5.32053 20.9799 5.06012 21.3601 4.74971 21.7975L4.57649 21.8619L4.4614 21.7307C4.337 20.3542 4.27306 19.5305 4.27306 19.2584C4.27306 18.4529 4.36491 17.549 4.54626 16.5455C4.72414 15.5433 5.00548 14.2834 5.38331 12.7685C5.76114 11.2547 5.97738 10.3642 6.03551 10.1006C5.76928 9.53321 5.63442 8.79214 5.63442 7.88097C5.63442 7.15325 5.85182 6.4717 6.28778 5.83024C6.7249 5.19121 7.27712 4.8717 7.94676 4.8717C8.45944 4.8717 8.85704 5.04907 9.14187 5.40503C9.42786 5.75978 9.56737 6.20686 9.56737 6.75234C9.56737 7.33063 9.38368 8.16768 9.01399 9.2623C8.64429 10.3581 8.46061 11.1757 8.46061 11.7188C8.46061 12.2691 8.64894 12.7296 9.02561 13.0904C9.39734 13.4514 9.88892 13.647 10.3963 13.6359C10.8566 13.6359 11.2833 13.5265 11.6797 13.3067C12.07 13.0932 12.4078 12.7884 12.6668 12.4161C13.2309 11.6074 13.633 10.688 13.8491 9.71302C13.9607 9.20034 14.0467 8.71317 14.1002 8.25515C14.1572 7.79471 14.1816 7.35978 14.1816 6.94672C14.1816 5.43176 13.7212 4.25089 12.8063 3.40533C11.8867 2.55977 10.6892 2.13942 9.21627 2.13942C7.54102 2.13942 6.14014 2.70556 5.01826 3.84147C3.89523 4.97375 3.33023 6.41339 3.33023 8.15918C3.33023 8.5443 3.38603 8.91605 3.49182 9.27566C3.59529 9.63405 3.70806 9.91955 3.83013 10.1309C3.95103 10.3387 4.06497 10.5416 4.16843 10.7287C4.27306 10.9158 4.3277 11.0494 4.3277 11.1296C4.3277 11.375 4.26609 11.6945 4.14169 12.0893C4.01265 12.4842 3.86035 12.681 3.67667 12.681C3.65923 12.681 3.58715 12.6676 3.4616 12.6397C3.02676 12.504 2.63406 12.2504 2.32345 11.9047C1.99379 11.5463 1.73363 11.1247 1.55732 10.6631C1.38152 10.203 1.24459 9.72783 1.1481 9.24286C1.04385 8.78397 0.992339 8.31373 0.994642 7.84209Z" fill="white"/>
</svg>

