<svg width="20" height="18" viewBox="0 0 20 18" fill="none" xmlns="http://www.w3.org/2000/svg">
<path d="M19.4365 2.73669C18.7218 3.05885 17.9441 3.29071 17.143 3.38102C17.9747 2.86467 18.5975 2.04892 18.8946 1.08683C18.1142 1.572 17.2592 1.91221 16.3676 2.09236C15.995 1.67606 15.5443 1.34441 15.0436 1.11808C14.543 0.891758 14.0031 0.775606 13.4576 0.776866C11.2505 0.776866 9.47552 2.64639 9.47552 4.94058C9.47552 5.26274 9.51288 5.5849 9.57361 5.89486C6.26886 5.71426 3.32145 4.06439 1.36195 1.53834C1.00491 2.17563 0.81781 2.90125 0.820114 3.63972C0.820114 5.08457 1.5231 6.35858 2.5951 7.10786C1.96336 7.08186 1.3464 6.9004 0.794424 6.57824V6.62949C0.794424 8.65277 2.16303 10.3295 3.98707 10.7151C3.64458 10.8081 3.29227 10.8556 2.93842 10.8567C2.67918 10.8567 2.43395 10.8298 2.18639 10.7932C2.69086 12.4431 4.15989 13.6414 5.90919 13.6805C4.54058 14.8007 2.82632 15.4597 0.964916 15.4597C0.630938 15.4597 0.32265 15.4475 0.00268555 15.4084C1.76833 16.5921 3.86328 17.2755 6.11939 17.2755C13.4435 17.2755 17.4513 10.9348 17.4513 5.43114C17.4513 5.25054 17.4513 5.06993 17.4396 4.88932C18.215 4.29625 18.8946 3.56162 19.4365 2.73669Z" fill="white"/>
</svg>
