<svg width="19" height="15" viewBox="0 0 19 15" fill="none" xmlns="http://www.w3.org/2000/svg">
<path d="M18.5525 2.33418C18.4466 1.91419 18.239 1.53119 17.9504 1.2235C17.6619 0.915812 17.3025 0.694231 16.9083 0.580933C15.4572 0.165283 9.64018 0.165283 9.64018 0.165283C9.64018 0.165283 3.8232 0.165283 2.37207 0.578722C1.97767 0.691652 1.61812 0.91311 1.32951 1.22086C1.04091 1.5286 0.833417 1.9118 0.727874 2.33197C0.339661 3.8796 0.339661 7.10751 0.339661 7.10751C0.339661 7.10751 0.339661 10.3354 0.727874 11.8808C0.941703 12.7343 1.57281 13.4064 2.37207 13.6341C3.8232 14.0497 9.64018 14.0497 9.64018 14.0497C9.64018 14.0497 15.4572 14.0497 16.9083 13.6341C17.7096 13.4064 18.3387 12.7343 18.5525 11.8808C18.9407 10.3354 18.9407 7.10751 18.9407 7.10751C18.9407 7.10751 18.9407 3.8796 18.5525 2.33418ZM7.79254 10.0701V4.14491L12.6089 7.0854L7.79254 10.0701Z" fill="white"/>
</svg>
